<?xml version="1.0" standalone="no"?>
<!DOCTYPE svg PUBLIC "-//W3C//DTD SVG 20010904//EN"
 "http://www.w3.org/TR/2001/REC-SVG-20010904/DTD/svg10.dtd">
<svg version="1.0" xmlns="http://www.w3.org/2000/svg"
 width="785.000000pt" height="487.000000pt" viewBox="0 0 785.000000 487.000000"
 preserveAspectRatio="xMidYMid meet">

<g transform="translate(0.000000,487.000000) scale(0.100000,-0.100000)"
fill="#000000" stroke="none">
<path d="M0 2435 l0 -2435 3925 0 3925 0 0 2435 0 2435 -3925 0 -3925 0 0
-2435z m6654 1078 c-52 -159 -133 -408 -181 -554 l-86 -266 -2254 -1301 -2255
-1302 -558 0 -559 0 -25 83 c-15 45 -95 293 -180 551 l-154 468 18 52 c45 130
130 267 230 366 279 280 702 355 1068 190 212 -97 408 -308 488 -526 l27 -74
31 19 c17 10 1023 591 2236 1291 1213 700 2209 1276 2215 1281 35 33 25 -16
-61 -278z"/>
<path d="M4485 2489 c-1227 -710 -2236 -1294 -2244 -1298 -7 -5 -12 -13 -10
-18 3 -8 433 238 2609 1495 217 125 729 421 1137 657 632 365 789 460 745 454
-4 -1 -1010 -581 -2237 -1290z"/>
<path d="M6025 3340 c-368 -214 -708 -411 -755 -438 -47 -27 -746 -431 -1555
-897 -808 -466 -1477 -855 -1486 -864 -15 -14 -69 -172 -285 -838 -34 -106
-60 -193 -59 -193 4 0 4436 2558 4474 2582 12 7 70 169 181 512 90 276 166
507 168 514 2 6 0 12 -4 11 -5 -1 -310 -176 -679 -389z"/>
<path d="M1130 1856 c-338 -78 -609 -321 -704 -633 l-7 -23 900 0 901 0 -25
66 c-105 279 -343 496 -630 575 -98 27 -346 36 -435 15z"/>
<path d="M422 1172 c3 -16 61 -17 893 -20 892 -2 918 -1 899 30 -3 5 -408 8
-900 8 -841 -1 -895 -2 -892 -18z"/>
<path d="M526 853 c52 -159 128 -393 170 -520 l75 -233 547 0 548 0 46 143
c26 78 101 308 167 511 67 203 121 373 121 377 0 5 -390 9 -884 9 l-884 0 94
-287z"/>
</g>
</svg>
