<?xml version="1.0" standalone="no"?>
<!DOCTYPE svg PUBLIC "-//W3C//DTD SVG 20010904//EN"
 "http://www.w3.org/TR/2001/REC-SVG-20010904/DTD/svg10.dtd">
<svg version="1.0" xmlns="http://www.w3.org/2000/svg"
 width="917.000000pt" height="583.000000pt" viewBox="0 0 917.000000 583.000000"
 preserveAspectRatio="xMidYMid meet">

<g transform="translate(0.000000,583.000000) scale(0.100000,-0.100000)"
fill="#000000" stroke="none">
<path d="M8915 4843 c-37 -23 -35 -25 8 -8 11 5 17 3 17 -6 0 -8 -371 -228
-824 -489 -453 -261 -822 -477 -820 -479 3 -3 560 316 1452 833 100 58 182
104 182 102 0 -1 -13 -42 -30 -91 -16 -49 -30 -94 -29 -99 0 -14 76 200 83
237 3 15 4 27 3 26 -1 0 -20 -12 -42 -26z"/>
<path d="M8076 4360 c-429 -247 -784 -455 -790 -461 -6 -7 5 -3 24 8 41 24
1516 874 1545 891 11 6 15 12 10 12 -6 0 -361 -202 -789 -450z"/>
<path d="M8741 4219 c-35 -105 -61 -192 -59 -194 2 -2 32 82 67 186 35 105 61
192 59 194 -2 2 -32 -82 -67 -186z"/>
<path d="M5630 2950 l-1624 -939 -530 -1 c-291 0 -532 -3 -534 -5 -3 -3 232
-5 521 -5 314 0 527 -4 527 -9 0 -43 36 -41 -834 -43 l-821 -3 819 -2 818 -3
-6 -23 c-15 -58 -15 -67 2 -22 l19 50 1645 950 c906 522 1645 952 1643 954 -2
2 -738 -420 -1634 -938 -897 -517 -1633 -941 -1636 -941 -41 0 239 167 1623
965 895 516 1631 942 1637 947 6 5 6 8 0 7 -6 0 -741 -423 -1635 -939z"/>
<path d="M8592 3763 c-17 -53 -30 -99 -28 -101 2 -2 18 40 36 93 18 53 30 98
28 100 -2 2 -18 -39 -36 -92z"/>
<path d="M6086 2230 c-1353 -781 -2461 -1418 -2464 -1416 -2 3 17 67 42 143
25 76 46 143 45 148 0 6 -24 -60 -53 -145 l-53 -155 -594 -5 -594 -5 598 -5
c329 -3 601 -2 605 1 4 4 1101 638 2437 1409 2742 1582 2513 1450 2500 1450
-5 0 -1117 -639 -2469 -1420z"/>
<path d="M2978 2753 c23 -2 61 -2 85 0 23 2 4 4 -43 4 -47 0 -66 -2 -42 -4z"/>
<path d="M2843 2743 c9 -2 25 -2 35 0 9 3 1 5 -18 5 -19 0 -27 -2 -17 -5z"/>
<path d="M3123 2743 c9 -2 25 -2 35 0 9 3 1 5 -18 5 -19 0 -27 -2 -17 -5z"/>
<path d="M2735 2725 c-53 -17 -34 -18 35 0 30 7 44 13 30 13 -14 0 -43 -5 -65
-13z"/>
<path d="M3188 2733 c6 -2 18 -2 25 0 6 3 1 5 -13 5 -14 0 -19 -2 -12 -5z"/>
<path d="M3278 2713 c7 -3 16 -2 19 1 4 3 -2 6 -13 5 -11 0 -14 -3 -6 -6z"/>
<path d="M2568 2666 c-161 -72 -292 -177 -398 -318 -58 -77 -150 -248 -150
-278 0 -8 15 19 33 60 108 246 309 442 560 546 45 18 75 34 67 34 -8 0 -59
-20 -112 -44z"/>
<path d="M3360 2688 c195 -91 275 -144 381 -255 94 -97 175 -225 226 -353 12
-32 13 -32 7 -5 -14 76 -108 233 -207 348 -89 103 -303 246 -407 271 l-25 6
25 -12z"/>
<path d="M2000 1986 c0 -8 4 -17 9 -20 5 -4 7 3 4 14 -6 23 -13 26 -13 6z"/>
<path d="M2021 1924 c0 -11 3 -14 6 -6 3 7 2 16 -1 19 -3 4 -6 -2 -5 -13z"/>
<path d="M2081 1745 c-1 -6 30 -103 68 -215 38 -113 70 -200 70 -195 1 6 -30
103 -68 215 -38 113 -70 200 -70 195z"/>
<path d="M3877 1633 c-11 -19 -119 -355 -115 -358 2 -2 31 79 65 181 54 161
66 205 50 177z"/>
<path d="M2271 1165 c-1 -15 110 -349 120 -359 5 -6 -17 69 -49 165 -68 200
-70 207 -71 194z"/>
</g>
</svg>
